<svg width="38" height="45" viewBox="0 0 38 45" fill="none" xmlns="http://www.w3.org/2000/svg">
<g clip-path="url(#clip0_32_263)">
<path d="M15.8948 20.3338L14.9475 20.099C15.0546 20.3349 15.1213 20.5978 15.1338 20.8781C15.1528 21.3012 15.0469 21.6988 14.8546 22.0297L15.5824 25.3849C15.9951 25.1621 16.4241 24.9719 16.8673 24.8167L15.8948 20.3338ZM32.4818 42.3252C32.4818 40.8856 31.4349 39.7185 30.1435 39.7185C28.8521 39.7185 27.8052 40.8856 27.8052 42.3252C27.8052 43.7648 28.8521 44.9319 30.1435 44.9319C31.4349 44.9317 32.4818 43.7648 32.4818 42.3252ZM30.1435 43.855C29.3855 43.855 28.771 43.1701 28.771 42.325C28.771 41.4799 29.3854 40.795 30.1435 40.795C30.9014 40.795 31.516 41.4799 31.516 42.325C31.516 43.1701 30.9016 43.855 30.1435 43.855Z" fill="white"/>
<path d="M30.1435 43.0923C30.5235 43.0923 30.8316 42.7489 30.8316 42.3252C30.8316 41.9016 30.5235 41.5581 30.1435 41.5581C29.7634 41.5581 29.4553 41.9016 29.4553 42.3252C29.4553 42.7489 29.7634 43.0923 30.1435 43.0923Z" fill="white"/>
<path d="M22.9946 11.6753H27.5812C27.7694 11.1456 28.2324 10.7693 28.7737 10.7693C29.315 10.7693 29.7782 11.1456 29.9664 11.6753H30.6771C30.6525 11.2317 30.5673 10.8065 30.4307 10.4094H23.2409C23.1044 10.8065 23.0192 11.2317 22.9946 11.6753ZM30.0569 12.1998C30.0569 12.9887 29.4812 13.6303 28.7737 13.6303C28.0662 13.6303 27.4905 12.9885 27.4905 12.1998C27.4905 12.1515 27.4927 12.1039 27.497 12.0567H22.9887C23.0421 14.3749 24.7435 16.2362 26.8357 16.2362C28.9284 16.2362 30.6294 14.3751 30.6827 12.0567H30.0504C30.0547 12.1039 30.0569 12.1515 30.0569 12.1998ZM22.9713 24.9777C21.7059 22.5981 21.4311 20.4065 21.4197 20.3107C21.3581 19.7956 21.4801 19.2846 21.7632 18.8719C22.0464 18.4591 22.4568 18.1938 22.9188 18.1252C22.9956 18.1137 23.0734 18.108 23.1503 18.108C24.0177 18.108 24.7606 18.8307 24.8784 19.7891C24.8915 19.8904 25.0278 20.8663 25.5356 22.0885C25.5953 21.7607 25.6532 21.4431 25.706 21.1421C26.1969 19.2438 25.5546 16.9718 24.0943 16.5662C22.6337 16.1601 20.5165 17.0445 19.655 19.8372C19.1423 21.532 18.8071 22.9662 18.63 24.4028C18.9837 24.3582 19.3426 24.3328 19.7067 24.3328C20.8533 24.333 21.953 24.5607 22.9713 24.9777ZM35.8627 44.4732C36.1893 44.4732 36.5209 44.3895 36.8319 44.2129C37.8843 43.6151 38.3028 42.1793 37.7665 41.0061L33.0457 30.6789C32.7333 30.9978 32.3194 31.1918 31.8706 31.1918C31.7938 31.1918 31.7161 31.1861 31.6397 31.1746C30.318 30.9797 29.1675 30.6074 28.1673 30.1214C28.6839 31.2488 29.0261 32.4912 29.1499 33.8058H29.6745L33.9556 43.1711C34.3332 43.9975 35.0839 44.4732 35.8627 44.4732Z" fill="white"/>
<path d="M27.8587 29.4972C28.9318 30.0852 30.1972 30.5385 31.6891 30.7588C31.75 30.7678 31.8106 30.7722 31.8705 30.7722C32.5465 30.7722 33.1345 30.2137 33.2255 29.4464C33.3248 28.611 32.7976 27.8441 32.0483 27.7337C25.471 26.7633 24.5435 20.1419 24.5055 19.8463C24.4032 19.0139 23.7154 18.4309 22.9686 18.5413C22.2194 18.6527 21.6928 19.4202 21.7928 20.2554C21.8043 20.351 22.0883 22.6229 23.4405 25.0305C23.4813 25.1033 23.5238 25.177 23.5672 25.251C25.3584 26.1432 26.858 27.6345 27.8587 29.4972Z" fill="white"/>
<path d="M19.7069 24.8371C14.7123 24.8371 10.6635 29.3507 10.6635 34.9185C10.6635 40.4862 14.7123 44.9998 19.7069 44.9998C24.7014 44.9998 28.7502 40.4862 28.7502 34.9185C28.7504 29.3507 24.7015 24.8371 19.7069 24.8371ZM20.7363 33.7708L23.6437 28.1573C24.493 28.7739 25.2189 29.5832 25.7721 30.53L20.7363 33.7708ZM20.0838 33.3509V26.8644C21.1266 26.9243 22.1105 27.2334 22.9916 27.7362L20.0838 33.3509ZM18.3006 35.3386L13.264 38.5803C12.813 37.598 12.5357 36.5011 12.482 35.3386H18.3006ZM12.482 34.4985C12.5357 33.336 12.813 32.2391 13.264 31.2568L18.3006 34.4985H12.482ZM19.3301 42.9728C18.2873 42.9129 17.3034 42.6037 16.4222 42.1009L19.3301 36.4863V42.9728ZM20.0838 36.4863L22.9916 42.1009C22.1105 42.6037 21.1266 42.9129 20.0838 42.9728V36.4863ZM19.3301 26.8644V33.3509L16.4222 27.7362C17.3034 27.2334 18.2873 26.9243 19.3301 26.8644ZM15.7702 28.1573L18.6776 33.7708L13.6418 30.53C14.195 29.5832 14.9209 28.7739 15.7702 28.1573ZM13.6418 39.3071L18.6776 36.0661L15.7702 41.6798C14.9209 41.0632 14.195 40.2539 13.6418 39.3071ZM23.6437 41.6798L20.7363 36.0661L25.7721 39.3071C25.2189 40.2539 24.493 41.0632 23.6437 41.6798ZM21.1132 35.3386H26.9319C26.8782 36.5011 26.6008 37.598 26.1498 38.5803L21.1132 35.3386ZM26.9319 34.4985H21.1132L26.1498 31.2568C26.6008 32.2391 26.8782 33.336 26.9319 34.4985ZM30.3553 9.38425L30.1544 6.69803C30.1544 6.69803 28.9571 5.68106 26.7136 5.68106C24.4704 5.68106 23.2727 6.69803 23.2727 6.69803L23.0721 9.38425H20.4899V10.028H32.9369V9.38425H30.3553Z" fill="white"/>
<path d="M28.7737 13.2799C29.3088 13.2799 29.7426 12.7963 29.7426 12.1998C29.7426 11.6033 29.3088 11.1197 28.7737 11.1197C28.2386 11.1197 27.8048 11.6033 27.8048 12.1998C27.8048 12.7963 28.2386 13.2799 28.7737 13.2799Z" fill="white"/>
<path d="M8.3578 8.5828C10.4839 8.5828 12.2074 6.66147 12.2074 4.2914C12.2074 1.92133 10.4839 0 8.3578 0C6.23175 0 4.50824 1.92133 4.50824 4.2914C4.50824 6.66147 6.23175 8.5828 8.3578 8.5828Z" fill="white"/>
<path d="M2.92877 12.3035C2.97513 11.2667 3.74009 10.4546 4.67031 10.4546C4.69957 10.4546 4.729 10.4554 4.75877 10.4571C5.71585 10.5103 6.45891 11.4218 6.41511 12.4889C6.41459 12.5061 6.3826 13.8715 6.89587 15.3317C7.0129 14.6768 7.1289 14.0556 7.22831 13.4889C7.71917 11.5906 7.07689 9.31863 5.61662 8.91295C4.15601 8.50688 2.03875 9.39129 1.1773 12.1839C0.013022 16.0317 -0.237114 18.5362 0.205329 22.7732C0.566162 24.8432 1.54173 25.6603 2.61943 25.9668C3.39123 28.8203 4.50743 34.9856 2.27195 41.7143C1.86167 42.9491 2.42696 44.3208 3.5346 44.778C3.77961 44.8791 4.03026 44.9271 4.27714 44.9271C5.14629 44.9271 5.96342 44.3321 6.28285 43.3704C9.35344 34.1286 7.21633 25.9601 6.32152 23.2569C6.22383 22.4396 6.20193 21.5884 6.2317 20.7296C5.99576 20.5196 5.77026 20.2947 5.5552 20.0551C2.75614 16.9352 2.92038 12.491 2.92877 12.3035Z" fill="white"/>
<path d="M14.7579 20.8993C14.72 20.0574 14.0752 19.4122 13.3224 19.4515C10.8662 19.589 8.99873 18.9716 7.77303 17.6182C5.95587 15.6115 6.03713 12.5297 6.03902 12.4698C6.07341 11.631 5.49289 10.9181 4.73974 10.8763C3.98574 10.8342 3.34227 11.4826 3.30463 12.3243C3.29659 12.5044 3.1385 16.7679 5.82139 19.7584C7.46866 21.5943 9.76711 22.5222 12.6623 22.522C12.9229 22.522 13.1889 22.5144 13.4591 22.4995C14.2141 22.4574 14.7955 21.7408 14.7579 20.8993Z" fill="white"/>
</g>
<defs>
<clipPath id="clip0_32_263">
<rect width="38" height="45" fill="white"/>
</clipPath>
</defs>
</svg>
