<svg width="51" height="51" viewBox="0 0 51 51" fill="none" xmlns="http://www.w3.org/2000/svg">
<path d="M45.4169 38.504H5.58311V31.8302H41.8857C43.8331 31.8302 45.4219 33.414 45.4219 35.3663V38.504H45.4169ZM7.57529 36.5118H43.4297V35.3663C43.4297 34.5146 42.7374 33.8224 41.8857 33.8224H7.57529V36.5118Z" fill="white"/>
<path d="M13.6764 33.8224H5.58311V28.558H10.7877C12.3814 28.558 13.6813 29.8579 13.6813 31.4517V33.8224H13.6764ZM7.57529 31.8302H11.6842V31.4467C11.6842 30.9486 11.2808 30.5452 10.7827 30.5452H7.57031V31.8302H7.57529Z" fill="white"/>
<path d="M29.4595 25.0717H25.0916C24.4342 25.0717 23.9013 24.5388 23.9013 23.8814V19.1698H19.1897C18.5323 19.1698 17.9994 18.6369 17.9994 17.9795V13.6116C17.9994 12.9542 18.5323 12.4213 19.1897 12.4213H23.9013V7.70977C23.9013 7.05235 24.4342 6.51944 25.0916 6.51944H29.4595C30.1169 6.51944 30.6498 7.05235 30.6498 7.70977V12.4213H35.3613C36.0187 12.4213 36.5517 12.9542 36.5517 13.6116V17.9795C36.5517 18.6369 36.0187 19.1698 35.3613 19.1698H30.6498V23.8814C30.6498 24.5338 30.1119 25.0717 29.4595 25.0717ZM25.8935 23.0795H28.6576V17.1776H34.5595V14.4135H28.6576V8.51163H25.8935V14.4135H19.9916V17.1776H25.8935V23.0795Z" fill="white"/>
<path d="M45.4169 37.5079H43.4247V44.4806H45.4169V37.5079Z" fill="white"/>
<path d="M7.57529 21.2766H5.58311V44.4806H7.57529V21.2766Z" fill="white"/>
</svg>
