<svg width="47" height="47" viewBox="0 0 47 47" fill="none" xmlns="http://www.w3.org/2000/svg">
<g clip-path="url(#clip0_32_258)">
<path d="M22.7656 7.34393H24.2344V6.24237H25.3359V4.77362H24.2344V3.67206H22.7656V4.77362H21.6641V6.24237H22.7656V7.34393Z" fill="white"/>
<path d="M29.375 30.8439H28.6406V29.3752H33.0469C34.0207 29.3752 34.9547 28.9883 35.6433 28.2997C36.3319 27.6111 36.7188 26.6772 36.7188 25.7033V16.8908C36.7233 15.0428 36.2898 13.2201 35.4536 11.5721C34.6175 9.92404 33.4026 8.49771 31.9086 7.41004L33.0469 2.36489C33.0712 2.2565 33.0706 2.14402 33.0452 2.0359C33.0197 1.92777 32.9701 1.82683 32.9 1.74067C32.8293 1.6535 32.7396 1.58369 32.6378 1.53659C32.536 1.48948 32.4247 1.46635 32.3125 1.46895H14.6875C14.5778 1.46857 14.4694 1.49279 14.3703 1.53981C14.2711 1.58683 14.1838 1.65546 14.1147 1.74067C14.0446 1.82683 13.995 1.92777 13.9695 2.0359C13.9441 2.14402 13.9435 2.2565 13.9678 2.36489L15.0914 7.41004C13.5974 8.49771 12.3825 9.92404 11.5464 11.5721C10.7102 13.2201 10.2767 15.0428 10.2812 16.8908V25.7033C10.2812 26.6772 10.6681 27.6111 11.3567 28.2997C12.0453 28.9883 12.9793 29.3752 13.9531 29.3752H18.3594V30.8439H17.625C14.8982 30.8439 12.2832 31.9271 10.3551 33.8553C8.42695 35.7834 7.34375 38.3984 7.34375 41.1252V46.2658C7.34375 46.4606 7.42112 46.6474 7.55884 46.7851C7.69657 46.9228 7.88336 47.0002 8.07812 47.0002H38.9219C39.1166 47.0002 39.3034 46.9228 39.4412 46.7851C39.5789 46.6474 39.6562 46.4606 39.6562 46.2658V41.1252C39.6562 38.3984 38.573 35.7834 36.6449 33.8553C34.7168 31.9271 32.1018 30.8439 29.375 30.8439ZM29.375 32.3127V34.0825C29.3818 34.787 29.1191 35.4675 28.6406 35.9846C28.2432 36.4237 27.692 36.693 27.1014 36.7367C26.5108 36.7805 25.9259 36.5953 25.4681 36.2196L25.0275 35.7716C25.7412 35.5481 26.3962 35.1686 26.9449 34.6605C27.4936 34.1524 27.9224 33.5285 28.2 32.8341L28.3983 32.3494L29.375 32.3127ZM15.4219 21.2971V16.1564H20.5625C21.7458 16.1571 22.9091 15.851 23.9387 15.2679C24.9684 14.6848 25.8293 13.8448 26.4375 12.8297C26.9777 13.7449 27.7233 14.5219 28.6155 15.0993C29.5077 15.6767 30.522 16.0386 31.5781 16.1564V21.2971C31.5783 21.5718 31.5636 21.8464 31.5341 22.1196C29.1219 20.6219 26.3392 19.8283 23.5 19.8283C20.6608 19.8283 17.8781 20.6219 15.4659 22.1196C15.4364 21.8464 15.4217 21.5718 15.4219 21.2971ZM15.8331 23.6177C18.1039 22.1049 20.7715 21.2977 23.5 21.2977C26.2285 21.2977 28.8961 22.1049 31.1669 23.6177L31.2256 23.6544C30.7124 25.298 29.6875 26.7345 28.3004 27.7546C26.9132 28.7746 25.2365 29.3247 23.5147 29.3247C21.7929 29.3247 20.1161 28.7746 18.729 27.7546C17.3419 26.7345 16.317 25.298 15.8038 23.6544L15.8331 23.6177ZM19.8281 30.1096C20.9916 30.5944 22.2396 30.8439 23.5 30.8439C24.7604 30.8439 26.0084 30.5944 27.1719 30.1096V31.4388L26.8488 32.2539C26.5786 32.9207 26.1156 33.4916 25.519 33.8937C24.9224 34.2957 24.2194 34.5104 23.5 34.5104C22.7806 34.5104 22.0776 34.2957 21.481 33.8937C20.8844 33.4916 20.4214 32.9207 20.1513 32.2539L19.8281 31.4388V30.1096ZM31.3945 2.9377L30.2563 8.07832H16.7437L15.6055 2.9377H31.3945ZM11.75 25.7033V16.8908C11.7411 15.3854 12.0657 13.8968 12.7006 12.5318C13.3355 11.1668 14.2648 9.95938 15.4219 8.99629C15.4635 9.15787 15.5589 9.30045 15.6924 9.40056C15.8259 9.50068 15.9895 9.55235 16.1562 9.54707H30.8438C31.0105 9.55235 31.1741 9.50068 31.3076 9.40056C31.4411 9.30045 31.5365 9.15787 31.5781 8.99629C32.7352 9.95938 33.6645 11.1668 34.2994 12.5318C34.9343 13.8968 35.2589 15.3854 35.25 16.8908V25.7033C35.25 26.2876 35.0179 26.848 34.6047 27.2612C34.1916 27.6743 33.6312 27.9064 33.0469 27.9064H30.3738C32.0849 26.1312 33.0428 23.7627 33.0469 21.2971V15.4221C33.0469 15.2273 32.9695 15.0405 32.8318 14.9028C32.6941 14.7651 32.5073 14.6877 32.3125 14.6877C31.1775 14.6977 30.0685 14.3477 29.1449 13.688C28.2213 13.0282 27.5305 12.0927 27.1719 11.0158L27.0984 10.7882C27.0501 10.6412 26.9567 10.5133 26.8314 10.4226C26.7061 10.3319 26.5554 10.2831 26.4008 10.2831C26.2461 10.2831 26.0954 10.3319 25.9701 10.4226C25.8449 10.5133 25.7514 10.6412 25.7031 10.7882V11.0158C25.3445 12.0927 24.6537 13.0282 23.7301 13.688C22.8065 14.3477 21.6975 14.6977 20.5625 14.6877H14.6875C14.4927 14.6877 14.3059 14.7651 14.1682 14.9028C14.0305 15.0405 13.9531 15.2273 13.9531 15.4221V21.2971C13.9572 23.7627 14.9151 26.1312 16.6262 27.9064H13.9531C13.3688 27.9064 12.8084 27.6743 12.3953 27.2612C11.9821 26.848 11.75 26.2876 11.75 25.7033ZM18.5944 32.3127L18.7927 32.7974C19.0706 33.4928 19.5003 34.1175 20.0504 34.6257C20.6006 35.1339 21.2572 35.5128 21.9725 35.7349L21.5686 36.1388C21.1179 36.5338 20.5315 36.7385 19.9328 36.7097C19.3342 36.681 18.7701 36.421 18.3594 35.9846C17.8861 35.473 17.6238 34.8015 17.625 34.1046V32.3127H18.5944ZM8.8125 41.1252C8.81461 39.0442 9.55311 37.031 10.8972 35.4423C12.2413 33.8535 14.1043 32.7917 16.1562 32.4449V34.0825C16.1508 35.1537 16.5554 36.1864 17.2872 36.9686C17.6383 37.3516 18.0649 37.6576 18.5401 37.8674C19.0154 38.0772 19.5289 38.1863 20.0484 38.1877C20.9751 38.1801 21.8684 37.8415 22.5673 37.233L22.7656 37.0347V45.5314H14.6875V41.8596H13.2188V45.5314H8.8125V41.1252ZM38.1875 45.5314H33.7812V41.8596H32.3125V45.5314H24.2344V37.0274L24.4767 37.2771C25.2189 37.9184 26.1819 38.2449 27.1611 38.1873C28.1402 38.1297 29.0583 37.6925 29.7202 36.9686C30.4499 36.1856 30.852 35.1528 30.8438 34.0825V32.4449C32.8957 32.7917 34.7587 33.8535 36.1028 35.4423C37.4469 37.031 38.1854 39.0442 38.1875 41.1252V45.5314Z" fill="white"/>
<path d="M30.1094 39.6564H28.6406V41.1252H27.1719V42.5939H28.6406V44.0627H30.1094V42.5939H31.5781V41.1252H30.1094V39.6564Z" fill="white"/>
</g>
<defs>
<clipPath id="clip0_32_258">
<rect width="47" height="47" fill="white"/>
</clipPath>
</defs>
</svg>
