<svg width="52" height="52" viewBox="0 0 52 52" fill="none" xmlns="http://www.w3.org/2000/svg">
<path d="M41.9453 21.5018H37.6556C37.1399 19.5082 36.1286 17.7151 34.7532 16.2623L37.0386 13.0858C37.3613 12.6376 37.2593 12.0126 36.811 11.6903C36.3623 11.3676 35.7383 11.4701 35.4155 11.9178L33.2527 14.924C31.4961 13.5988 29.3712 12.7426 27.0547 12.5491V8.50183C27.0547 7.94958 26.6069 7.50183 26.0547 7.50183C25.5024 7.50183 25.0547 7.94958 25.0547 8.50183V12.5487C22.7083 12.7433 20.5557 13.6188 18.7838 14.9747L16.5845 11.9178C16.2612 11.4696 15.6367 11.3661 15.189 11.6903C14.7407 12.0126 14.6387 12.6376 14.9614 13.0858L17.2926 16.3259C15.9462 17.7676 14.9542 19.5368 14.445 21.5018H10.0547C9.50244 21.5018 9.05469 21.9496 9.05469 22.5018C9.05469 23.0541 9.50244 23.5018 10.0547 23.5018H14.1006C14.0732 23.8312 14.05 24.1619 14.05 24.4982V34.5887C14.3759 34.5337 14.7085 34.4984 15.0498 34.4984H37.0498C37.3912 34.4984 37.7239 34.5337 38.05 34.5887V24.4982C38.05 24.1619 38.0268 23.8312 37.9995 23.5018H41.9453C42.4976 23.5018 42.9453 23.0541 42.9453 22.5018C42.9453 21.9496 42.4976 21.5018 41.9453 21.5018ZM24.0547 19.5018C22.4004 19.5018 21.0547 20.8475 21.0547 22.5018C21.0547 23.0541 20.6069 23.5018 20.0547 23.5018C19.5024 23.5018 19.0547 23.0541 19.0547 22.5018C19.0547 19.745 21.2979 17.5018 24.0547 17.5018C24.6069 17.5018 25.0547 17.9496 25.0547 18.5018C25.0547 19.0541 24.6069 19.5018 24.0547 19.5018Z" fill="white"/>
<path d="M37.05 36.4982H15.05C12.85 36.4982 11.05 38.2982 11.05 40.4982C11.05 42.7082 12.85 44.4982 15.05 44.4982H37.05C39.26 44.4982 41.05 42.7082 41.05 40.4982C41.05 38.2982 39.26 36.4982 37.05 36.4982Z" fill="white"/>
</svg>
